inDegrees=yes
name=ik_S54_A07_T01
DataType=double
version=3
OpenSimVersion=4.3-2021-08-27-4bc7ad9
endheader
time	pelvis_tilt	pelvis_list	pelvis_rotation	pelvis_tx	pelvis_ty	pelvis_tz	hip_flexion_r	hip_adduction_r	hip_rotation_r	knee_angle_r	knee_angle_r_beta	ankle_angle_r	subtalar_angle_r	mtp_angle_r	hip_flexion_l	hip_adduction_l	hip_rotation_l	knee_angle_l	knee_angle_l_beta	ankle_angle_l	subtalar_angle_l	mtp_angle_l	lumbar_extension	lumbar_bending	lumbar_rotation	arm_flex_r	arm_add_r	arm_rot_r	elbow_flex_r	pro_sup_r	wrist_flex_r	wrist_dev_r	arm_flex_l	arm_add_l	arm_rot_l	elbow_flex_l	pro_sup_l	wrist_flex_l	wrist_dev_l
15.69999999999975	-3.777383875923081	-2.811685504448751	17.82380455107244	0	0.9399999999999999	0	42.92178048912039	-10.54916657135397	-10.77909765117104	46.09186369574435	0.8044547798711809	0	0	0	42.92178048912039	-10.54916657135397	-10.77909765117104	46.09186369574435	0.8044547798711809	0	0	0	-3.98024070079212	-1.605440920692154	-0.2868754467384079	62.8181011972045	12.01518847944586	1.528863222507139	46.79495410667787	81.67158959073205	0	0	28.69467636015963	-14.18463509370762	0.7664284870892077	35.95691346424157	121.5166680059301	0	0
15.71999999999975	-3.796772232923073	-2.795896323607404	17.45665201773582	0	0.9399999999999999	0	42.92352564355764	-10.54756248718437	-10.77763585188947	46.09697644502351	0.804544014179931	0	0	0	42.92352564355764	-10.54756248718437	-10.77763585188947	46.09697644502351	0.804544014179931	0	0	0	-3.980581945686402	-1.602031897392888	-0.006744123777752546	62.57667047392456	10.50717073542055	2.312089408611454	51.66218012857009	80.01147153091922	0	0	28.63628301498462	-14.18868103612785	0.599451988857633	36.08781477782883	121.595634913628	0	0
15.73999999999975	-3.807675591789866	-2.782251108679173	17.56254522763995	0	0.9399999999999999	0	42.92543530959134	-10.54581598020537	-10.77604105840166	46.10258830227293	0.8046419595660854	0	0	0	42.92543530959134	-10.54581598020537	-10.77604105840166	46.10258830227293	0.8046419595660854	0	0	0	-3.994258111681372	-1.571429263533588	-0.1591622375809977	62.62788147225771	10.23189389498524	2.778859658402822	55.60917703555533	79.32213565238436	0	0	28.57932047310533	-14.18448171274997	0.4929772577361643	36.21616072231561	121.6747634524968	0	0
15.75999999999975	-3.813003847819254	-2.757470649378048	16.80770026722739	0	0.9399999999999999	0	42.93022451565029	-10.54144124759622	-10.77204018411933	46.11660017074535	0.8048865128052856	0	0	0	42.93022451565029	-10.54144124759622	-10.77204018411933	46.11660017074535	0.8048865128052856	0	0	0	-3.962567176469242	-1.552499467627211	0.4393778712254391	62.76652289592482	6.98403262736892	3.83515630979516	66.10602193560999	74.96739248971448	0	0	28.51557846107502	-14.16507179537257	0.3100171279766197	36.27988445729913	121.7512860296405	0	0
15.77999999999975	-3.824225565583231	-2.748884722286492	16.467573564441	0	0.9399999999999999	0	42.93194444905143	-10.53987592823775	-10.77060657801899	46.12164457010272	0.804974554182857	0	0	0	42.93194444905143	-10.53987592823775	-10.77060657801899	46.12164457010272	0.804974554182857	0	0	0	-3.958893963419864	-1.565117470143375	0.7293636983910965	63.24286580128824	5.210202902302091	4.248381967554176	71.36460720106999	72.37808803622046	0	0	28.38193264901679	-14.22383539729361	0.2144794406615238	36.49560219499756	121.8324413661231	0	0
15.79999999999975	-3.823865598112966	-2.723488276370476	16.09140608722158	0	0.9399999999999999	0	42.93368008073205	-10.53829876623271	-10.76916085858812	46.12673350603199	0.8050633728702459	0	0	0	42.93368008073205	-10.53829876623271	-10.76916085858812	46.12673350603199	0.8050633728702459	0	0	0	-3.941729557579936	-1.556669966046702	0.9836033397078477	63.79963587060355	3.46332178395618	4.68343723065875	76.60736941987989	69.39300546238115	0	0	28.27795413539409	-14.27467374801921	0.1141759837181744	36.60394089981885	121.8645550424542	0	0
15.81999999999975	-3.818512457794886	-2.701970231100277	15.91920051418785	0	0.9399999999999999	0	42.93516695772026	-10.53696081831176	-10.76793003980213	46.13112681742327	0.8051400506190891	0	0	0	42.93516695772026	-10.53696081831176	-10.76793003980213	46.13112681742327	0.8051400506190891	0	0	0	-3.928022167213798	-1.542033973851712	1.03022580593134	63.83377096744316	3.283671288800659	4.833504984025418	78.76738202534344	68.64826255380613	0	0	28.11818682103303	-14.34814269047059	0.1091264353742977	36.79667285508972	121.9331695228099	0	0
